# xmcd
# 
# Track frame offsets:
#     150
#     18472
#     45281
#     64121
#     88304
#     113064
#     136932
#     171824
#     185657
#     192972
# 
# Disc length: 3010
# 
# Revision: 1
# Processed by: cddbd v1.5.2PL0 Copyright (c) Steve Scherf et al.
# Submitted via: fre:ac v1.1beta1pre5
# 
DISCID=840bc00a
DTITLE=At War With Self - Torn Between Dimensions
DYEAR=0
DGENRE=ロック (一般)
TTITLE0=The God Interface
TTITLE1=Torn Between Dimensions
TTITLE2=A Gap in the Stream of Mind Part One
TTITLE3=Grasping at Nothing
TTITLE4=Coming Home
TTITLE5=The Event Horizon
TTITLE6=A Gap in the Stream of Mind Part Two
TTITLE7=Run
TTITLE8=A Gap in the Stream of Mind Part Three
TTITLE9=At War With Self
EXTD=
EXTT0=
EXTT1=
EXTT2=
EXTT3=
EXTT4=
EXTT5=
EXTT6=
EXTT7=
EXTT8=
EXTT9=
PLAYORDER=
